<?xml version="1.0" encoding="utf-8"?>
<!-- Generator: Adobe Illustrator 27.9.0, SVG Export Plug-In . SVG Version: 6.00 Build 0)  -->
<svg version="1.1" id="Warstwa_1" xmlns="http://www.w3.org/2000/svg" xmlns:xlink="http://www.w3.org/1999/xlink" x="0px" y="0px"
	 viewBox="0 0 480 480" style="enable-background:new 0 0 480 480;" xml:space="preserve">
<style type="text/css">
	.st0{fill:none;stroke:#EBEBEB;stroke-width:0.53;stroke-linejoin:round;stroke-miterlimit:10;}
	.st1{fill:#3E424B;}
	.st2{fill:none;stroke:#828282;stroke-width:0.15;stroke-linejoin:round;stroke-miterlimit:10;}
	.st3{fill:#828282;stroke:#828282;stroke-width:0.15;stroke-linejoin:round;stroke-miterlimit:10;}
	.st4{fill:none;stroke:#8AAFC4;stroke-width:1.25;stroke-linejoin:round;stroke-miterlimit:10;}
	.st5{fill:#FDFC8F;stroke:#FDFC8F;stroke-width:0.25;stroke-linecap:round;stroke-linejoin:round;stroke-miterlimit:10;}
	.st6{fill:#FDFC8F;stroke:#FDFC8F;stroke-width:0.25;stroke-linecap:round;stroke-linejoin:round;stroke-miterlimit:10.0002;}
	.st7{fill:#FDFEFF;}
	.st8{font-family:'Helvetica-Bold';}
	.st9{font-size:8.8px;}
	.st10{fill:#FFFFFF;}
	.st11{font-family:'AGaramondPro-Bold';}
	.st12{font-size:25px;}
	.st13{font-family:'AGaramondPro-Regular';}
	.st14{font-size:16px;}
	.st15{fill:#8D8F91;}
	.st16{font-size:12px;}
</style>
<g>
	<line class="st0" x1="46.4" y1="408.7" x2="482.9" y2="408.7"/>
	<rect x="-14" y="-5.5" class="st1" width="513.9" height="495.7"/>
</g>
<g>
	<line class="st2" x1="38" y1="446.7" x2="474.5" y2="446.7"/>
</g>
<g>
	<g>
		<line class="st3" x1="38" y1="316.2" x2="474.5" y2="316.2"/>
	</g>
	<g>
		<line class="st3" x1="38" y1="229.3" x2="474.5" y2="229.3"/>
	</g>
	<g>
		<line class="st3" x1="38" y1="142.3" x2="474.5" y2="142.3"/>
	</g>
	<g>
		<line class="st3" x1="38" y1="55.3" x2="474.5" y2="55.3"/>
	</g>
	<g>
		<line class="st3" x1="97.4" y1="461.4" x2="97.4" y2="23.2"/>
	</g>
	<g>
		<line class="st3" x1="192.7" y1="461.4" x2="192.7" y2="23.2"/>
	</g>
	<g>
		<line class="st3" x1="288.1" y1="461.4" x2="288.1" y2="23.2"/>
	</g>
	<g>
		<line class="st3" x1="383.5" y1="461.4" x2="383.5" y2="23.2"/>
	</g>
	<g>
		<line class="st3" x1="38" y1="359.8" x2="474.5" y2="359.8"/>
	</g>
	<g>
		<line class="st3" x1="38" y1="272.8" x2="474.5" y2="272.8"/>
	</g>
	<g>
		<line class="st3" x1="38" y1="185.8" x2="474.5" y2="185.8"/>
	</g>
	<g>
		<line class="st3" x1="38" y1="98.8" x2="474.5" y2="98.8"/>
	</g>
	<g>
		<line class="st3" x1="49.8" y1="461.4" x2="49.8" y2="23.2"/>
	</g>
	<g>
		<line class="st3" x1="145.1" y1="461.4" x2="145.1" y2="23.2"/>
	</g>
	<g>
		<line class="st3" x1="240.4" y1="461.4" x2="240.4" y2="23.2"/>
	</g>
	<g>
		<line class="st3" x1="335.9" y1="461.4" x2="335.9" y2="23.2"/>
	</g>
	<g>
		<line class="st3" x1="431.2" y1="461.4" x2="431.2" y2="23.2"/>
	</g>
</g>
<polyline class="st4" points="57.9,395.4 65.2,43.1 73.2,303.2 81.1,359.8 89.2,368.5 97,357.1 105.1,383.2 113.2,325 121,376.3 
	129.1,404.1 137,403.2 145.1,403.2 153.1,412.8 160.5,421.5 168.5,418.9 176.4,414.5 184.5,427.6 192.3,428.5 200.4,419.8 
	208.5,429.3 216.3,427.6 224.4,421.5 232.3,413.7 240.4,415.4 248.4,423.2 256,404.1 264.1,407.6 271.9,414.5 280,413.7 
	287.9,411.9 296,402.4 304,391.1 311.9,405.9 320,414.5 327.8,432 335.9,416.3 344,404.1 351.3,400.6 359.4,399.8 367.2,408.5 
	375.3,398.9 383.1,384.1 391.2,398 399.3,398 407.2,410.2 415.3,419.8 423.1,418.9 431.2,405.9 439.3,408.5 446.6,409.3 
	454.7,441.5 "/>
<circle class="st5" cx="65.3" cy="42.1" r="2"/>
<g>
	<circle class="st5" cx="73.4" cy="305.8" r="2"/>
</g>
<g>
	<circle class="st5" cx="113.2" cy="325" r="2"/>
</g>
<g>
	<circle class="st5" cx="97.4" cy="357.3" r="2"/>
</g>
<g>
	<circle class="st5" cx="82.4" cy="361" r="2"/>
</g>
<g>
	<circle class="st5" cx="89.5" cy="367.1" r="2"/>
</g>
<g>
	<circle class="st5" cx="121.7" cy="378.7" r="2"/>
</g>
<g>
	<circle class="st5" cx="105.6" cy="383.6" r="2"/>
</g>
<g>
	<circle class="st5" cx="383.1" cy="383.1" r="2"/>
</g>
<g>
	<circle class="st5" cx="304" cy="390.1" r="2"/>
</g>
<g>
	<circle class="st5" cx="57.9" cy="397" r="2"/>
</g>
<g>
	<circle class="st5" cx="391.2" cy="397" r="2"/>
</g>
<g>
	<circle class="st5" cx="399.3" cy="397" r="2"/>
</g>
<g>
	<circle class="st5" cx="375.3" cy="397.9" r="2"/>
</g>
<g>
	<circle class="st5" cx="359.4" cy="398.8" r="2"/>
</g>
<g>
	<circle class="st5" cx="351.3" cy="399.6" r="2"/>
</g>
<g>
	<circle class="st5" cx="296" cy="401.4" r="2"/>
</g>
<g>
	<circle class="st5" cx="137.8" cy="402.8" r="2"/>
</g>
<g>
	<circle class="st5" cx="145.1" cy="402.8" r="2"/>
</g>
<g>
	<ellipse class="st6" cx="129.9" cy="403.1" rx="2" ry="2"/>
</g>
<g>
	<circle class="st5" cx="256" cy="403.1" r="2"/>
</g>
<g>
	<circle class="st5" cx="344" cy="403.1" r="2"/>
</g>
<g>
	<circle class="st5" cx="311.9" cy="404.9" r="2"/>
</g>
<g>
	<circle class="st5" cx="431.2" cy="404.9" r="2"/>
</g>
<g>
	<circle class="st5" cx="264.1" cy="406.6" r="2"/>
</g>
<g>
	<circle class="st5" cx="439.3" cy="407.5" r="2"/>
</g>
<g>
	<circle class="st5" cx="367.2" cy="407.5" r="2"/>
</g>
<g>
	<circle class="st5" cx="446.6" cy="408.3" r="2"/>
</g>
<g>
	<circle class="st5" cx="407.2" cy="409.2" r="2"/>
</g>
<g>
	<circle class="st5" cx="287.9" cy="410.9" r="2"/>
</g>
<g>
	<circle class="st5" cx="153.1" cy="411.8" r="2"/>
</g>
<g>
	<circle class="st5" cx="232.3" cy="412.7" r="2"/>
</g>
<g>
	<circle class="st5" cx="280" cy="412.7" r="2"/>
</g>
<g>
	<circle class="st5" cx="271.9" cy="413.5" r="2"/>
</g>
<g>
	<circle class="st5" cx="176.4" cy="413.5" r="2"/>
</g>
<g>
	<circle class="st5" cx="320" cy="413.5" r="2"/>
</g>
<g>
	<circle class="st5" cx="240.4" cy="414.4" r="2"/>
</g>
<g>
	<circle class="st5" cx="335.9" cy="415.3" r="2"/>
</g>
<g>
	<circle class="st5" cx="423.1" cy="417.9" r="2"/>
</g>
<g>
	<circle class="st5" cx="168.5" cy="417.9" r="2"/>
</g>
<g>
	<circle class="st5" cx="200.4" cy="418.8" r="2"/>
</g>
<g>
	<circle class="st5" cx="415.3" cy="418.8" r="2"/>
</g>
<g>
	<circle class="st5" cx="160.5" cy="420.5" r="2"/>
</g>
<g>
	<circle class="st5" cx="224.4" cy="420.5" r="2"/>
</g>
<g>
	<circle class="st5" cx="248.4" cy="422.2" r="2"/>
</g>
<g>
	<circle class="st5" cx="184.5" cy="426.6" r="2"/>
</g>
<g>
	<circle class="st5" cx="216.3" cy="426.6" r="2"/>
</g>
<g>
	<circle class="st5" cx="192.3" cy="427.5" r="2"/>
</g>
<g>
	<circle class="st5" cx="208.5" cy="428.3" r="2"/>
</g>
<g>
	<circle class="st5" cx="327.8" cy="431" r="2"/>
</g>
<g>
	<circle class="st5" cx="454.7" cy="440.5" r="2"/>
</g>
<g>
	<text transform="matrix(1 0 0 1 28.1959 449.89)" class="st7 st8 st9">0</text>
</g>
<g>
	<text transform="matrix(1 0 0 1 18.4076 362.9)" class="st10 st8 st9">100</text>
</g>
<g>
	<text transform="matrix(1 0 0 1 18.4076 275.9)" class="st10 st8 st9">200</text>
</g>
<g>
	<text transform="matrix(1 0 0 1 18.4076 188.91)" class="st10 st8 st9">300</text>
</g>
<g>
	<text transform="matrix(1 0 0 1 18.4076 101.92)" class="st10 st8 st9">400</text>
</g>
<g>
	<text transform="matrix(1 0 0 1 39.9817 472.67)" class="st10 st8 st9">2022</text>
</g>
<g>
	<text transform="matrix(1 0 0 1 135.2717 472.67)" class="st7 st8 st9">2023</text>
</g>
<g>
	<text transform="matrix(1 0 0 1 230.5617 472.67)" class="st10 st8 st9">2024</text>
</g>
<g>
	<text transform="matrix(1 0 0 1 326.1117 472.67)" class="st10 st8 st9">2025</text>
</g>
<g>
	<text transform="matrix(1 0 0 1 421.4017 472.67)" class="st10 st8 st9">2026</text>
</g>
<rect x="107.6" y="7.7" class="st1" width="366.9" height="111.6"/>
<text transform="matrix(1 0 0 1 117.6583 41.8948)"><tspan x="0" y="0" class="st10 st11 st12">Attacks on Ukraine’s Health Care</tspan><tspan x="0" y="19.2" class="st10 st13 st14">Per month, from the first day of the full-scale invasion.</tspan><tspan x="0" y="52.8" class="st15 st13 st16">By Luiza Swierzawska | Source: World Health Organization</tspan><tspan x="277.3" y="52.8" class="st15 st11 st16"> </tspan></text>
</svg>
